<svg width="411" height="395" viewBox="0 0 411 395" fill="none" xmlns="http://www.w3.org/2000/svg">
<style>
  .bubble { fill: white; }
  .text { fill: black; }
  @media (prefers-color-scheme: light) {
    .bubble { fill: black; }
    .text { fill: white; }
  }
</style>
<path class="bubble" d="M0.0505394 178.855C6.76429 71.9657 97.6316 0 205.839 0C315.66 0 410.839 71.6797 410.839 166.889C410.839 253.623 331.853 320.83 234.765 332.109L262.001 369.673C265.392 374.351 265.873 380.536 263.247 385.684C260.621 390.831 255.332 394.072 249.553 394.072C185.518 394.072 123.058 374.827 76.4811 338.337C29.5845 301.595 -0.929973 247.475 0.0216367 179.605C0.0253267 179.355 0.0347544 179.105 0.0505394 178.855Z"/>
<path class="text" d="M122.036 232.224C110.816 232.224 101.942 228.654 95.414 221.514C88.988 214.374 85.775 203.919 85.775 190.149C85.775 180.969 87.101 173.676 89.753 168.27C92.405 162.864 96.077 159.039 100.769 156.795C105.563 154.449 110.969 153.276 116.987 153.276C122.393 153.276 126.779 153.939 130.145 155.265C133.511 156.591 136.163 158.835 138.101 161.997C137.387 159.855 136.826 157.866 136.418 156.03C136.112 154.092 135.857 151.848 135.653 149.298C135.551 146.748 135.5 143.484 135.5 139.506V126.348C135.5 118.392 138.917 114.414 145.751 114.414C153.197 114.414 156.92 118.392 156.92 126.348V191.067C156.92 204.837 153.86 215.139 147.74 221.973C141.62 228.807 133.052 232.224 122.036 232.224ZM120.965 213.864C125.249 213.864 128.564 212.334 130.91 209.274C133.358 206.214 134.582 200.502 134.582 192.138C134.582 186.528 134.021 182.295 132.899 179.439C131.879 176.481 130.349 174.441 128.309 173.319C126.269 172.197 123.821 171.636 120.965 171.636C118.109 171.636 115.661 172.197 113.621 173.319C111.581 174.441 110 176.481 108.878 179.439C107.858 182.295 107.348 186.528 107.348 192.138C107.348 200.502 108.521 206.214 110.867 209.274C113.315 212.334 116.681 213.864 120.965 213.864ZM184.448 140.118C180.674 140.118 177.512 138.894 174.962 136.446C172.412 133.998 171.137 130.989 171.137 127.419C171.137 123.645 172.412 120.534 174.962 118.086C177.512 115.638 180.674 114.414 184.448 114.414C188.324 114.414 191.486 115.638 193.934 118.086C196.484 120.534 197.759 123.645 197.759 127.419C197.759 130.989 196.484 133.998 193.934 136.446C191.486 138.894 188.324 140.118 184.448 140.118ZM195.464 221.973C195.464 228.807 191.894 232.224 184.754 232.224C181.286 232.224 178.532 231.408 176.492 229.776C174.452 228.042 173.432 225.441 173.432 221.973V163.68C173.432 160.416 174.248 157.866 175.88 156.03C177.614 154.194 180.47 153.276 184.448 153.276C188.426 153.276 191.231 154.194 192.863 156.03C194.597 157.866 195.464 160.416 195.464 163.68V221.973ZM228.501 232.224C224.523 232.224 221.667 231.102 219.933 228.858C218.301 226.512 217.485 223.605 217.485 220.137V173.013H215.343C207.795 173.013 204.021 169.953 204.021 163.833C204.021 157.611 207.795 154.5 215.343 154.5H217.485V153.888C217.485 142.056 220.035 132.519 225.135 125.277C230.235 118.035 238.038 114.414 248.544 114.414C248.646 114.414 248.748 114.414 248.85 114.414H249.003C249.309 114.414 249.615 114.414 249.921 114.414C258.285 114.516 264.354 115.689 268.128 117.933C272.004 120.177 273.942 123.594 273.942 128.184C273.942 131.55 273.024 133.794 271.188 134.916C269.454 135.936 267.006 136.446 263.844 136.446C261.09 136.446 258.744 136.242 256.806 135.834C254.97 135.324 252.573 134.967 249.615 134.763H248.697C244.617 134.763 241.965 136.344 240.741 139.506C239.517 142.566 238.905 146.34 238.905 150.828V154.5H247.626C254.562 154.5 258.03 157.611 258.03 163.833C258.03 169.953 254.562 173.013 247.626 173.013H238.905V220.137C238.905 224.319 237.987 227.379 236.151 229.317C234.417 231.255 231.867 232.224 228.501 232.224ZM288.715 232.224C284.737 232.224 281.881 231.102 280.147 228.858C278.515 226.512 277.699 223.605 277.699 220.137V173.013H275.557C268.009 173.013 264.235 169.953 264.235 163.833C264.235 157.611 268.009 154.5 275.557 154.5H277.699V153.888C277.699 142.056 280.249 132.519 285.349 125.277C290.449 118.035 298.252 114.414 308.758 114.414C308.86 114.414 308.962 114.414 309.064 114.414H309.217C309.523 114.414 309.829 114.414 310.135 114.414C318.499 114.516 324.568 115.689 328.342 117.933C332.218 120.177 334.156 123.594 334.156 128.184C334.156 131.55 333.238 133.794 331.402 134.916C329.668 135.936 327.22 136.446 324.058 136.446C321.304 136.446 318.958 136.242 317.02 135.834C315.184 135.324 312.787 134.967 309.829 134.763H308.911C304.831 134.763 302.179 136.344 300.955 139.506C299.731 142.566 299.119 146.34 299.119 150.828V154.5H307.84C314.776 154.5 318.244 157.611 318.244 163.833C318.244 169.953 314.776 173.013 307.84 173.013H299.119V220.137C299.119 224.319 298.201 227.379 296.365 229.317C294.631 231.255 292.081 232.224 288.715 232.224Z"/>
</svg>
