<svg xmlns="http://www.w3.org/2000/svg" viewBox="0 0 411 395">
  <style>
    .bubble { fill: black }
    .symbol { fill: white }
    @media (prefers-color-scheme: dark) {
      .bubble { fill: white }
      .symbol { fill: black }
    }
  </style>
  <path class="bubble" d="M0.0505394 178.855C6.76429 71.9657 97.6316 0 205.839 0C315.66 0 410.839 71.6797 410.839 166.889C410.839 253.623 331.853 320.83 234.765 332.109L262.001 369.673C265.392 374.351 265.873 380.536 263.247 385.684C260.621 390.831 255.332 394.072 249.553 394.072C185.518 394.072 123.058 374.827 76.4811 338.337C29.5845 301.595 -0.929973 247.475 0.0216367 179.605C0.0253267 179.355 0.0347544 179.105 0.0505394 178.855Z"/>
  <g transform="translate(-12, 0)">
  <path class="symbol" d="M166.35 159.819C160.895 159.819 156.496 158.51 153.152 155.893C149.984 153.101 148.401 149.001 148.401 143.592C148.401 138.008 149.984 133.908 153.152 131.291C156.496 128.673 160.895 127.365 166.35 127.365H200.666V109.829C200.666 104.245 201.986 99.8831 204.626 96.7424C207.442 93.6016 211.577 92.0312 217.032 92.0312C222.664 92.0312 226.799 93.6016 229.439 96.7424C232.079 99.8831 233.399 104.245 233.399 109.829V127.365H267.451C273.082 127.365 277.481 128.673 280.649 131.291C283.817 133.908 285.401 138.008 285.401 143.592C285.401 149.001 283.817 153.101 280.649 155.893C277.481 158.51 273.082 159.819 267.451 159.819H233.399V180.234C233.399 185.643 232.079 190.005 229.439 193.32C226.799 196.461 222.664 198.031 217.032 198.031C211.577 198.031 207.442 196.461 204.626 193.32C201.986 190.005 200.666 185.643 200.666 180.234V159.819H166.35Z"/>
  <path class="symbol" d="M154.152 243.16C157.496 245.741 161.895 247.031 167.35 247.031H268.451C274.082 247.031 278.481 245.741 281.649 243.16C284.817 240.408 286.401 236.365 286.401 231.031C286.401 225.526 284.817 221.483 281.649 218.902C278.481 216.322 274.082 215.031 268.451 215.031H167.35C161.895 215.031 157.496 216.322 154.152 218.902C150.984 221.483 149.401 225.526 149.401 231.031C149.401 236.365 150.984 240.408 154.152 243.16Z"/>
  </g>
</svg>
